<mxfile host="app.diagrams.net" modified="2022-09-07T07:59:09.043Z" agent="5.0 (Windows NT 10.0; Win64; x64) AppleWebKit/537.36 (KHTML, like Gecko) Chrome/104.0.0.0 Safari/537.36" etag="BBDLhO5A61wDkyHkBFpT" version="20.2.8" type="github">
  <diagram id="C5RBs43oDa-KdzZeNtuy" name="Page-1">
    <mxGraphModel dx="1713" dy="1640" grid="1" gridSize="10" guides="1" tooltips="1" connect="1" arrows="1" fold="1" page="1" pageScale="1" pageWidth="827" pageHeight="1169" math="0" shadow="0">
      <root>
        <mxCell id="WIyWlLk6GJQsqaUBKTNV-0" />
        <mxCell id="WIyWlLk6GJQsqaUBKTNV-1" parent="WIyWlLk6GJQsqaUBKTNV-0" />
        <mxCell id="WIyWlLk6GJQsqaUBKTNV-3" value="接收服务器推送的内容" style="rounded=1;whiteSpace=wrap;html=1;fontSize=12;glass=0;strokeWidth=1;shadow=0;" parent="WIyWlLk6GJQsqaUBKTNV-1" vertex="1">
          <mxGeometry x="-30" y="80" width="240" height="40" as="geometry" />
        </mxCell>
        <mxCell id="WIyWlLk6GJQsqaUBKTNV-4" value="Yes" style="rounded=0;html=1;jettySize=auto;orthogonalLoop=1;fontSize=11;endArrow=block;endFill=0;endSize=8;strokeWidth=1;shadow=0;labelBackgroundColor=none;edgeStyle=orthogonalEdgeStyle;" parent="WIyWlLk6GJQsqaUBKTNV-1" source="WIyWlLk6GJQsqaUBKTNV-6" target="WIyWlLk6GJQsqaUBKTNV-10" edge="1">
          <mxGeometry y="20" relative="1" as="geometry">
            <mxPoint as="offset" />
          </mxGeometry>
        </mxCell>
        <mxCell id="WIyWlLk6GJQsqaUBKTNV-5" value="No" style="edgeStyle=orthogonalEdgeStyle;rounded=0;html=1;jettySize=auto;orthogonalLoop=1;fontSize=11;endArrow=block;endFill=0;endSize=8;strokeWidth=1;shadow=0;labelBackgroundColor=none;entryX=0;entryY=0.5;entryDx=0;entryDy=0;" parent="WIyWlLk6GJQsqaUBKTNV-1" source="WIyWlLk6GJQsqaUBKTNV-6" target="bQDX-uMfjQgSmkw6_x5k-5" edge="1">
          <mxGeometry y="10" relative="1" as="geometry">
            <mxPoint as="offset" />
            <mxPoint x="450" y="520" as="targetPoint" />
          </mxGeometry>
        </mxCell>
        <mxCell id="WIyWlLk6GJQsqaUBKTNV-6" value="&lt;font style=&quot;font-size: 11px;&quot;&gt;&lt;br&gt;&lt;br&gt;&lt;br&gt;&lt;br&gt;判断内容是否以&lt;br&gt;&lt;/font&gt;&lt;span style=&quot;color: rgb(0, 128, 0); font-weight: bold; background-color: rgb(200, 235, 202); font-family: &amp;quot;Courier New&amp;quot;, monospace; font-size: 10.5pt;&quot;&gt;优惠活动&lt;br&gt;&lt;br&gt;开头&lt;/span&gt;" style="rhombus;whiteSpace=wrap;html=1;shadow=0;fontFamily=Helvetica;fontSize=12;align=center;strokeWidth=1;spacing=6;spacingTop=-4;" parent="WIyWlLk6GJQsqaUBKTNV-1" vertex="1">
          <mxGeometry x="270" y="530" width="100" height="80" as="geometry" />
        </mxCell>
        <mxCell id="WIyWlLk6GJQsqaUBKTNV-8" value="No" style="rounded=0;html=1;jettySize=auto;orthogonalLoop=1;fontSize=11;endArrow=block;endFill=0;endSize=8;strokeWidth=1;shadow=0;labelBackgroundColor=none;edgeStyle=orthogonalEdgeStyle;" parent="WIyWlLk6GJQsqaUBKTNV-1" source="WIyWlLk6GJQsqaUBKTNV-10" target="WIyWlLk6GJQsqaUBKTNV-11" edge="1">
          <mxGeometry x="0.3333" y="20" relative="1" as="geometry">
            <mxPoint as="offset" />
          </mxGeometry>
        </mxCell>
        <mxCell id="WIyWlLk6GJQsqaUBKTNV-10" value="处理内容" style="rhombus;whiteSpace=wrap;html=1;shadow=0;fontFamily=Helvetica;fontSize=12;align=center;strokeWidth=1;spacing=6;spacingTop=-4;" parent="WIyWlLk6GJQsqaUBKTNV-1" vertex="1">
          <mxGeometry x="270" y="830" width="100" height="80" as="geometry" />
        </mxCell>
        <mxCell id="WIyWlLk6GJQsqaUBKTNV-11" value="播放&lt;br&gt;处理完毕的语音内容" style="rounded=1;whiteSpace=wrap;html=1;fontSize=12;glass=0;strokeWidth=1;shadow=0;" parent="WIyWlLk6GJQsqaUBKTNV-1" vertex="1">
          <mxGeometry x="260" y="1070" width="120" height="40" as="geometry" />
        </mxCell>
        <mxCell id="bQDX-uMfjQgSmkw6_x5k-0" value="-&gt; 流水号：1000000125737197 &#xa;  易加油专用小票----员工联 &#xa;时间：2022-09-01 17:25:35 &#xa;油站：福兴加油站 &#xa;单价：原价9.16元（优惠价8.86元） &#xa;油量：0.11升 &#xa;实收：0.97元 &#xa;油枪：4号 &#xa;油品：95号汽油 &#xa;手机：151****3424 &#xa;合计：1.00元" style="text;whiteSpace=wrap;html=1;" parent="WIyWlLk6GJQsqaUBKTNV-1" vertex="1">
          <mxGeometry x="510" y="-185" width="230" height="180" as="geometry" />
        </mxCell>
        <mxCell id="bQDX-uMfjQgSmkw6_x5k-4" value="&lt;div style=&quot;text-align: left;&quot;&gt;&amp;lt;tdata&amp;gt;&lt;/div&gt;&lt;div style=&quot;text-align: left;&quot;&gt;&lt;span style=&quot;&quot;&gt; &lt;/span&gt;pw:123456;sn:0000000000000000;id:0100000281189378;ap:1;at:02;se:0;lp:1;pr:1;&lt;/div&gt;&lt;div style=&quot;text-align: left;&quot;&gt;&amp;lt;/tdata&amp;gt;&lt;/div&gt;&lt;div style=&quot;text-align: left;&quot;&gt;&amp;lt;tprint&amp;gt;&lt;/div&gt;&lt;div style=&quot;text-align: left;&quot;&gt;&amp;lt;p&amp;gt;0101024流水号：1000000125737197&lt;/div&gt;&lt;div style=&quot;text-align: left;&quot;&gt;&amp;lt;p&amp;gt;2001126&amp;nbsp; 易加油专用小票----顾客联&lt;/div&gt;&lt;div style=&quot;text-align: left;&quot;&gt;&amp;lt;p&amp;gt;2001125时间：2022-09-01 17:25:35&lt;/div&gt;&lt;div style=&quot;text-align: left;&quot;&gt;&amp;lt;p&amp;gt;0303116油站：福兴加油站&lt;/div&gt;&lt;div style=&quot;text-align: left;&quot;&gt;&amp;lt;p&amp;gt;0303132单价：原价9.16元（优惠价8.86元）&lt;/div&gt;&lt;div style=&quot;text-align: left;&quot;&gt;&amp;lt;p&amp;gt;0303112油量：0.11升&lt;/div&gt;&lt;div style=&quot;text-align: left;&quot;&gt;&amp;lt;p&amp;gt;0358112实收：0.97元&lt;/div&gt;&lt;div style=&quot;text-align: left;&quot;&gt;&amp;lt;p&amp;gt;0303109油枪：4号&lt;/div&gt;&lt;div style=&quot;text-align: left;&quot;&gt;&amp;lt;p&amp;gt;0303114油品：95号汽油&lt;/div&gt;&lt;div style=&quot;text-align: left;&quot;&gt;&amp;lt;p&amp;gt;0303117手机：151****3424&lt;/div&gt;&lt;div style=&quot;text-align: left;&quot;&gt;&amp;lt;p&amp;gt;0303212合计：1.00元&lt;/div&gt;&lt;div style=&quot;text-align: left;&quot;&gt;&amp;lt;/tprint&amp;gt;&lt;/div&gt;&lt;div&gt;&lt;br&gt;&lt;/div&gt;&lt;div&gt;&lt;div style=&quot;text-align: left;&quot;&gt;&amp;lt;tdata&amp;gt;&lt;/div&gt;&lt;div style=&quot;text-align: left;&quot;&gt;&lt;span style=&quot;&quot;&gt; &lt;/span&gt;pw:123456;sn:0000000000000000;id:0100000281189378;ap:1;at:02;se:0;lp:1;pr:1;&lt;/div&gt;&lt;div style=&quot;text-align: left;&quot;&gt;&amp;lt;/tdata&amp;gt;&lt;/div&gt;&lt;div style=&quot;text-align: left;&quot;&gt;&amp;lt;tprint&amp;gt;&lt;/div&gt;&lt;div style=&quot;text-align: left;&quot;&gt;&amp;lt;p&amp;gt;0101024流水号：1000000125737197&lt;/div&gt;&lt;div style=&quot;text-align: left;&quot;&gt;&amp;lt;p&amp;gt;2001126&amp;nbsp; 易加油专用小票----员工联&lt;/div&gt;&lt;div style=&quot;text-align: left;&quot;&gt;&amp;lt;p&amp;gt;2001125时间：2022-09-01 17:25:35&lt;/div&gt;&lt;div style=&quot;text-align: left;&quot;&gt;&amp;lt;p&amp;gt;0303116油站：福兴加油站&lt;/div&gt;&lt;div style=&quot;text-align: left;&quot;&gt;&amp;lt;p&amp;gt;0303132单价：原价9.16元（优惠价8.86元）&lt;/div&gt;&lt;div style=&quot;text-align: left;&quot;&gt;&amp;lt;p&amp;gt;0303112油量：0.11升&lt;/div&gt;&lt;div style=&quot;text-align: left;&quot;&gt;&amp;lt;p&amp;gt;0358112实收：0.97元&lt;/div&gt;&lt;div style=&quot;text-align: left;&quot;&gt;&amp;lt;p&amp;gt;0303109油枪：4号&lt;/div&gt;&lt;div style=&quot;text-align: left;&quot;&gt;&amp;lt;p&amp;gt;0303114油品：95号汽油&lt;/div&gt;&lt;div style=&quot;text-align: left;&quot;&gt;&amp;lt;p&amp;gt;0303117手机：151****3424&lt;/div&gt;&lt;div style=&quot;text-align: left;&quot;&gt;&amp;lt;p&amp;gt;0303212合计：1.00元&lt;/div&gt;&lt;div style=&quot;text-align: left;&quot;&gt;&amp;lt;/tprint&amp;gt;&lt;/div&gt;&lt;div&gt;&lt;br&gt;&lt;div style=&quot;text-align: left;&quot;&gt;&amp;lt;tdata&amp;gt;&lt;/div&gt;&lt;div style=&quot;text-align: left;&quot;&gt;&lt;span style=&quot;&quot;&gt; &lt;/span&gt;pw:123456;sn:0000000000000000;id:0100000281189378;ap:1;at:02;se:0;lp:1;pr:1;&lt;/div&gt;&lt;div style=&quot;text-align: left;&quot;&gt;&amp;lt;/tdata&amp;gt;&lt;/div&gt;&lt;div style=&quot;text-align: left;&quot;&gt;&amp;lt;tprint&amp;gt;&lt;/div&gt;&lt;div style=&quot;text-align: left;&quot;&gt;&amp;lt;p&amp;gt;0101024流水号：1000000125737197&lt;/div&gt;&lt;div style=&quot;text-align: left;&quot;&gt;&amp;lt;p&amp;gt;2001126&amp;nbsp; 易加油专用小票----柜台联&lt;/div&gt;&lt;div style=&quot;text-align: left;&quot;&gt;&amp;lt;p&amp;gt;2001125时间：2022-09-01 17:25:35&lt;/div&gt;&lt;div style=&quot;text-align: left;&quot;&gt;&amp;lt;p&amp;gt;0303116油站：福兴加油站&lt;/div&gt;&lt;div style=&quot;text-align: left;&quot;&gt;&amp;lt;p&amp;gt;0303132单价：原价9.16元（优惠价8.86元）&lt;/div&gt;&lt;div style=&quot;text-align: left;&quot;&gt;&amp;lt;p&amp;gt;0303112油量：0.11升&lt;/div&gt;&lt;div style=&quot;text-align: left;&quot;&gt;&amp;lt;p&amp;gt;0358112实收：0.97元&lt;/div&gt;&lt;div style=&quot;text-align: left;&quot;&gt;&amp;lt;p&amp;gt;0303109油枪：4号&lt;/div&gt;&lt;div style=&quot;text-align: left;&quot;&gt;&amp;lt;p&amp;gt;0303114油品：95号汽油&lt;/div&gt;&lt;div style=&quot;text-align: left;&quot;&gt;&amp;lt;p&amp;gt;0303117手机：151****3424&lt;/div&gt;&lt;div style=&quot;text-align: left;&quot;&gt;&amp;lt;p&amp;gt;0303212合计：1.00元&lt;/div&gt;&lt;div style=&quot;text-align: left;&quot;&gt;&amp;lt;/tprint&amp;gt;&lt;/div&gt;&lt;div&gt;&lt;br&gt;&lt;/div&gt;&lt;/div&gt;&lt;/div&gt;" style="rounded=0;whiteSpace=wrap;html=1;" parent="WIyWlLk6GJQsqaUBKTNV-1" vertex="1">
          <mxGeometry x="-110" y="-810" width="560" height="830" as="geometry" />
        </mxCell>
        <mxCell id="bQDX-uMfjQgSmkw6_x5k-5" value="&lt;br&gt;&lt;br&gt;&lt;br&gt;&lt;br&gt;判断内容是否以&lt;span style=&quot;background-color: rgb(248, 249, 250);&quot;&gt;&lt;br&gt;&lt;/span&gt;&lt;font face=&quot;Courier New, monospace&quot; color=&quot;#008000&quot;&gt;&lt;span style=&quot;font-size: 14px; background-color: rgb(200, 235, 202);&quot;&gt;&lt;b&gt;##&lt;br&gt;&lt;br&gt;开头&lt;/b&gt;&lt;/span&gt;&lt;/font&gt;" style="rhombus;whiteSpace=wrap;html=1;shadow=0;fontFamily=Helvetica;fontSize=12;align=center;strokeWidth=1;spacing=6;spacingTop=-4;" parent="WIyWlLk6GJQsqaUBKTNV-1" vertex="1">
          <mxGeometry x="460" y="530" width="100" height="80" as="geometry" />
        </mxCell>
        <mxCell id="bQDX-uMfjQgSmkw6_x5k-6" value="" style="endArrow=classic;html=1;rounded=0;exitX=0.5;exitY=1;exitDx=0;exitDy=0;entryX=1;entryY=0.5;entryDx=0;entryDy=0;" parent="WIyWlLk6GJQsqaUBKTNV-1" source="bQDX-uMfjQgSmkw6_x5k-5" target="WIyWlLk6GJQsqaUBKTNV-10" edge="1">
          <mxGeometry width="50" height="50" relative="1" as="geometry">
            <mxPoint x="390" y="550" as="sourcePoint" />
            <mxPoint x="500" y="750" as="targetPoint" />
            <Array as="points">
              <mxPoint x="510" y="870" />
            </Array>
          </mxGeometry>
        </mxCell>
        <mxCell id="bQDX-uMfjQgSmkw6_x5k-8" value="Yes" style="text;html=1;align=center;verticalAlign=middle;resizable=0;points=[];autosize=1;strokeColor=none;fillColor=none;" parent="WIyWlLk6GJQsqaUBKTNV-1" vertex="1">
          <mxGeometry x="520" y="700" width="40" height="30" as="geometry" />
        </mxCell>
        <mxCell id="bQDX-uMfjQgSmkw6_x5k-11" value="是否有语音模板" style="rhombus;whiteSpace=wrap;html=1;shadow=0;fontFamily=Helvetica;fontSize=12;align=center;strokeWidth=1;spacing=6;spacingTop=-4;" parent="WIyWlLk6GJQsqaUBKTNV-1" vertex="1">
          <mxGeometry x="740" y="530" width="100" height="80" as="geometry" />
        </mxCell>
        <mxCell id="bQDX-uMfjQgSmkw6_x5k-13" value="" style="endArrow=classic;html=1;rounded=0;exitX=0.5;exitY=1;exitDx=0;exitDy=0;" parent="WIyWlLk6GJQsqaUBKTNV-1" source="bQDX-uMfjQgSmkw6_x5k-11" target="bQDX-uMfjQgSmkw6_x5k-16" edge="1">
          <mxGeometry width="50" height="50" relative="1" as="geometry">
            <mxPoint x="650" y="740" as="sourcePoint" />
            <mxPoint x="790" y="720" as="targetPoint" />
          </mxGeometry>
        </mxCell>
        <mxCell id="bQDX-uMfjQgSmkw6_x5k-15" value="No" style="text;html=1;align=center;verticalAlign=middle;resizable=0;points=[];autosize=1;strokeColor=none;fillColor=none;" parent="WIyWlLk6GJQsqaUBKTNV-1" vertex="1">
          <mxGeometry x="790" y="645" width="40" height="30" as="geometry" />
        </mxCell>
        <mxCell id="bQDX-uMfjQgSmkw6_x5k-16" value="结束" style="rounded=1;whiteSpace=wrap;html=1;fontSize=12;glass=0;strokeWidth=1;shadow=0;" parent="WIyWlLk6GJQsqaUBKTNV-1" vertex="1">
          <mxGeometry x="730" y="730" width="120" height="40" as="geometry" />
        </mxCell>
        <mxCell id="bQDX-uMfjQgSmkw6_x5k-17" value="" style="endArrow=classic;html=1;rounded=0;exitX=1;exitY=0.5;exitDx=0;exitDy=0;entryX=0;entryY=0.5;entryDx=0;entryDy=0;" parent="WIyWlLk6GJQsqaUBKTNV-1" source="bQDX-uMfjQgSmkw6_x5k-11" target="bQDX-uMfjQgSmkw6_x5k-19" edge="1">
          <mxGeometry width="50" height="50" relative="1" as="geometry">
            <mxPoint x="930" y="690" as="sourcePoint" />
            <mxPoint x="970" y="570" as="targetPoint" />
          </mxGeometry>
        </mxCell>
        <mxCell id="bQDX-uMfjQgSmkw6_x5k-18" value="Yes" style="text;html=1;align=center;verticalAlign=middle;resizable=0;points=[];autosize=1;strokeColor=none;fillColor=none;" parent="WIyWlLk6GJQsqaUBKTNV-1" vertex="1">
          <mxGeometry x="870" y="535" width="40" height="30" as="geometry" />
        </mxCell>
        <mxCell id="bQDX-uMfjQgSmkw6_x5k-19" value="匹配语音模板是否包含 xx" style="rhombus;whiteSpace=wrap;html=1;shadow=0;fontFamily=Helvetica;fontSize=12;align=center;strokeWidth=1;spacing=6;spacingTop=-4;" parent="WIyWlLk6GJQsqaUBKTNV-1" vertex="1">
          <mxGeometry x="950" y="530" width="100" height="80" as="geometry" />
        </mxCell>
        <mxCell id="bQDX-uMfjQgSmkw6_x5k-20" value="" style="endArrow=classic;html=1;rounded=0;exitX=0.5;exitY=1;exitDx=0;exitDy=0;entryX=0.5;entryY=0;entryDx=0;entryDy=0;" parent="WIyWlLk6GJQsqaUBKTNV-1" source="bQDX-uMfjQgSmkw6_x5k-19" target="dKve_HhihdxJhTnQ7sWN-12" edge="1">
          <mxGeometry width="50" height="50" relative="1" as="geometry">
            <mxPoint x="650" y="740" as="sourcePoint" />
            <mxPoint x="1000.0000000000005" y="760" as="targetPoint" />
          </mxGeometry>
        </mxCell>
        <mxCell id="bQDX-uMfjQgSmkw6_x5k-37" value="" style="endArrow=classic;html=1;rounded=0;exitX=1;exitY=0.5;exitDx=0;exitDy=0;entryX=0;entryY=0.5;entryDx=0;entryDy=0;" parent="WIyWlLk6GJQsqaUBKTNV-1" source="bQDX-uMfjQgSmkw6_x5k-19" target="bQDX-uMfjQgSmkw6_x5k-39" edge="1">
          <mxGeometry width="50" height="50" relative="1" as="geometry">
            <mxPoint x="960" y="910" as="sourcePoint" />
            <mxPoint x="1180" y="570" as="targetPoint" />
          </mxGeometry>
        </mxCell>
        <mxCell id="bQDX-uMfjQgSmkw6_x5k-38" value="No" style="text;html=1;align=center;verticalAlign=middle;resizable=0;points=[];autosize=1;strokeColor=none;fillColor=none;" parent="WIyWlLk6GJQsqaUBKTNV-1" vertex="1">
          <mxGeometry x="1090" y="535" width="40" height="30" as="geometry" />
        </mxCell>
        <mxCell id="bQDX-uMfjQgSmkw6_x5k-39" value="直播播放语音模板内容" style="rounded=1;whiteSpace=wrap;html=1;fontSize=12;glass=0;strokeWidth=1;shadow=0;" parent="WIyWlLk6GJQsqaUBKTNV-1" vertex="1">
          <mxGeometry x="1200" y="550" width="143" height="40" as="geometry" />
        </mxCell>
        <mxCell id="bQDX-uMfjQgSmkw6_x5k-43" value="结束" style="rounded=1;whiteSpace=wrap;html=1;fontSize=12;glass=0;strokeWidth=1;shadow=0;" parent="WIyWlLk6GJQsqaUBKTNV-1" vertex="1">
          <mxGeometry x="730" y="730" width="120" height="40" as="geometry" />
        </mxCell>
        <mxCell id="bQDX-uMfjQgSmkw6_x5k-45" value="匹配语音模板是否包含 xx" style="rhombus;whiteSpace=wrap;html=1;shadow=0;fontFamily=Helvetica;fontSize=12;align=center;strokeWidth=1;spacing=6;spacingTop=-4;" parent="WIyWlLk6GJQsqaUBKTNV-1" vertex="1">
          <mxGeometry x="950" y="530" width="100" height="80" as="geometry" />
        </mxCell>
        <mxCell id="bQDX-uMfjQgSmkw6_x5k-46" value="结束" style="rounded=1;whiteSpace=wrap;html=1;fontSize=12;glass=0;strokeWidth=1;shadow=0;" parent="WIyWlLk6GJQsqaUBKTNV-1" vertex="1">
          <mxGeometry x="730" y="730" width="120" height="40" as="geometry" />
        </mxCell>
        <mxCell id="bQDX-uMfjQgSmkw6_x5k-48" value="匹配语音模板是否包含 xx" style="rhombus;whiteSpace=wrap;html=1;shadow=0;fontFamily=Helvetica;fontSize=12;align=center;strokeWidth=1;spacing=6;spacingTop=-4;" parent="WIyWlLk6GJQsqaUBKTNV-1" vertex="1">
          <mxGeometry x="950" y="530" width="100" height="80" as="geometry" />
        </mxCell>
        <mxCell id="bQDX-uMfjQgSmkw6_x5k-51" value="结束" style="rounded=1;whiteSpace=wrap;html=1;fontSize=12;glass=0;strokeWidth=1;shadow=0;" parent="WIyWlLk6GJQsqaUBKTNV-1" vertex="1">
          <mxGeometry x="730" y="730" width="120" height="40" as="geometry" />
        </mxCell>
        <mxCell id="bQDX-uMfjQgSmkw6_x5k-53" value="匹配语音模板是否包含 xx" style="rhombus;whiteSpace=wrap;html=1;shadow=0;fontFamily=Helvetica;fontSize=12;align=center;strokeWidth=1;spacing=6;spacingTop=-4;" parent="WIyWlLk6GJQsqaUBKTNV-1" vertex="1">
          <mxGeometry x="950" y="530" width="100" height="80" as="geometry" />
        </mxCell>
        <mxCell id="bQDX-uMfjQgSmkw6_x5k-57" value="结束" style="rounded=1;whiteSpace=wrap;html=1;fontSize=12;glass=0;strokeWidth=1;shadow=0;" parent="WIyWlLk6GJQsqaUBKTNV-1" vertex="1">
          <mxGeometry x="730" y="730" width="120" height="40" as="geometry" />
        </mxCell>
        <mxCell id="bQDX-uMfjQgSmkw6_x5k-59" value="匹配语音模板是否包含 xx" style="rhombus;whiteSpace=wrap;html=1;shadow=0;fontFamily=Helvetica;fontSize=12;align=center;strokeWidth=1;spacing=6;spacingTop=-4;" parent="WIyWlLk6GJQsqaUBKTNV-1" vertex="1">
          <mxGeometry x="950" y="530" width="100" height="80" as="geometry" />
        </mxCell>
        <mxCell id="bQDX-uMfjQgSmkw6_x5k-63" value="结束" style="rounded=1;whiteSpace=wrap;html=1;fontSize=12;glass=0;strokeWidth=1;shadow=0;" parent="WIyWlLk6GJQsqaUBKTNV-1" vertex="1">
          <mxGeometry x="730" y="730" width="120" height="40" as="geometry" />
        </mxCell>
        <mxCell id="bQDX-uMfjQgSmkw6_x5k-65" value="匹配语音模板是否包含 xx" style="rhombus;whiteSpace=wrap;html=1;shadow=0;fontFamily=Helvetica;fontSize=12;align=center;strokeWidth=1;spacing=6;spacingTop=-4;" parent="WIyWlLk6GJQsqaUBKTNV-1" vertex="1">
          <mxGeometry x="950" y="530" width="100" height="80" as="geometry" />
        </mxCell>
        <mxCell id="bQDX-uMfjQgSmkw6_x5k-71" value="" style="endArrow=classic;html=1;rounded=0;exitX=0.458;exitY=1.05;exitDx=0;exitDy=0;exitPerimeter=0;entryX=0.5;entryY=0;entryDx=0;entryDy=0;" parent="WIyWlLk6GJQsqaUBKTNV-1" source="WIyWlLk6GJQsqaUBKTNV-3" target="bQDX-uMfjQgSmkw6_x5k-72" edge="1">
          <mxGeometry width="50" height="50" relative="1" as="geometry">
            <mxPoint x="180" y="420" as="sourcePoint" />
            <mxPoint x="80" y="250" as="targetPoint" />
          </mxGeometry>
        </mxCell>
        <mxCell id="bQDX-uMfjQgSmkw6_x5k-72" value="判断接收内容&lt;br&gt;是否顾客联" style="rhombus;whiteSpace=wrap;html=1;shadow=0;fontFamily=Helvetica;fontSize=12;align=center;strokeWidth=1;spacing=6;spacingTop=-4;" parent="WIyWlLk6GJQsqaUBKTNV-1" vertex="1">
          <mxGeometry x="30" y="210" width="100" height="80" as="geometry" />
        </mxCell>
        <mxCell id="bQDX-uMfjQgSmkw6_x5k-73" value="" style="endArrow=classic;html=1;rounded=0;exitX=0.5;exitY=1;exitDx=0;exitDy=0;entryX=0.5;entryY=0;entryDx=0;entryDy=0;" parent="WIyWlLk6GJQsqaUBKTNV-1" source="bQDX-uMfjQgSmkw6_x5k-72" target="bQDX-uMfjQgSmkw6_x5k-75" edge="1">
          <mxGeometry width="50" height="50" relative="1" as="geometry">
            <mxPoint x="180" y="450" as="sourcePoint" />
            <mxPoint x="80" y="380" as="targetPoint" />
          </mxGeometry>
        </mxCell>
        <mxCell id="bQDX-uMfjQgSmkw6_x5k-74" value="Yes" style="text;html=1;align=center;verticalAlign=middle;resizable=0;points=[];autosize=1;strokeColor=none;fillColor=none;" parent="WIyWlLk6GJQsqaUBKTNV-1" vertex="1">
          <mxGeometry x="80" y="320" width="40" height="30" as="geometry" />
        </mxCell>
        <mxCell id="bQDX-uMfjQgSmkw6_x5k-75" value="判断内容&lt;br&gt;订单号id&lt;br&gt;是否存在播报过" style="rhombus;whiteSpace=wrap;html=1;shadow=0;fontFamily=Helvetica;fontSize=12;align=center;strokeWidth=1;spacing=6;spacingTop=-4;" parent="WIyWlLk6GJQsqaUBKTNV-1" vertex="1">
          <mxGeometry x="30" y="380" width="100" height="80" as="geometry" />
        </mxCell>
        <mxCell id="bQDX-uMfjQgSmkw6_x5k-76" value="" style="endArrow=classic;html=1;rounded=0;exitX=0.5;exitY=1;exitDx=0;exitDy=0;entryX=0.5;entryY=0;entryDx=0;entryDy=0;" parent="WIyWlLk6GJQsqaUBKTNV-1" source="bQDX-uMfjQgSmkw6_x5k-75" target="bQDX-uMfjQgSmkw6_x5k-79" edge="1">
          <mxGeometry width="50" height="50" relative="1" as="geometry">
            <mxPoint x="640" y="460" as="sourcePoint" />
            <mxPoint x="80" y="540" as="targetPoint" />
          </mxGeometry>
        </mxCell>
        <mxCell id="bQDX-uMfjQgSmkw6_x5k-77" value="Yes" style="text;html=1;align=center;verticalAlign=middle;resizable=0;points=[];autosize=1;strokeColor=none;fillColor=none;" parent="WIyWlLk6GJQsqaUBKTNV-1" vertex="1">
          <mxGeometry x="80" y="485" width="40" height="30" as="geometry" />
        </mxCell>
        <mxCell id="bQDX-uMfjQgSmkw6_x5k-79" value="结束" style="rounded=1;whiteSpace=wrap;html=1;" parent="WIyWlLk6GJQsqaUBKTNV-1" vertex="1">
          <mxGeometry x="20" y="555" width="120" height="60" as="geometry" />
        </mxCell>
        <mxCell id="bQDX-uMfjQgSmkw6_x5k-82" value="" style="endArrow=classic;html=1;rounded=0;exitX=1;exitY=0.5;exitDx=0;exitDy=0;entryX=0;entryY=0.5;entryDx=0;entryDy=0;" parent="WIyWlLk6GJQsqaUBKTNV-1" source="bQDX-uMfjQgSmkw6_x5k-75" target="bQDX-uMfjQgSmkw6_x5k-84" edge="1">
          <mxGeometry width="50" height="50" relative="1" as="geometry">
            <mxPoint x="640" y="560" as="sourcePoint" />
            <mxPoint x="210" y="420" as="targetPoint" />
          </mxGeometry>
        </mxCell>
        <mxCell id="bQDX-uMfjQgSmkw6_x5k-83" value="No" style="text;html=1;align=center;verticalAlign=middle;resizable=0;points=[];autosize=1;strokeColor=none;fillColor=none;" parent="WIyWlLk6GJQsqaUBKTNV-1" vertex="1">
          <mxGeometry x="170" y="385" width="40" height="30" as="geometry" />
        </mxCell>
        <mxCell id="bQDX-uMfjQgSmkw6_x5k-84" value="添加语音任务" style="rounded=0;whiteSpace=wrap;html=1;" parent="WIyWlLk6GJQsqaUBKTNV-1" vertex="1">
          <mxGeometry x="260" y="390" width="120" height="60" as="geometry" />
        </mxCell>
        <mxCell id="bQDX-uMfjQgSmkw6_x5k-88" value="" style="endArrow=classic;html=1;rounded=0;exitX=0;exitY=0.5;exitDx=0;exitDy=0;entryX=1;entryY=0.5;entryDx=0;entryDy=0;" parent="WIyWlLk6GJQsqaUBKTNV-1" source="bQDX-uMfjQgSmkw6_x5k-72" target="bQDX-uMfjQgSmkw6_x5k-89" edge="1">
          <mxGeometry width="50" height="50" relative="1" as="geometry">
            <mxPoint x="640" y="360" as="sourcePoint" />
            <mxPoint x="-60" y="250" as="targetPoint" />
          </mxGeometry>
        </mxCell>
        <mxCell id="bQDX-uMfjQgSmkw6_x5k-89" value="判断接收内容&lt;br&gt;是否柜台联" style="rhombus;whiteSpace=wrap;html=1;shadow=0;fontFamily=Helvetica;fontSize=12;align=center;strokeWidth=1;spacing=6;spacingTop=-4;" parent="WIyWlLk6GJQsqaUBKTNV-1" vertex="1">
          <mxGeometry x="-160" y="210" width="100" height="80" as="geometry" />
        </mxCell>
        <mxCell id="bQDX-uMfjQgSmkw6_x5k-90" value="No" style="text;html=1;align=center;verticalAlign=middle;resizable=0;points=[];autosize=1;strokeColor=none;fillColor=none;" parent="WIyWlLk6GJQsqaUBKTNV-1" vertex="1">
          <mxGeometry x="-30" y="215" width="40" height="30" as="geometry" />
        </mxCell>
        <mxCell id="bQDX-uMfjQgSmkw6_x5k-91" value="" style="endArrow=classic;html=1;rounded=0;exitX=0.5;exitY=1;exitDx=0;exitDy=0;entryX=0;entryY=0.5;entryDx=0;entryDy=0;" parent="WIyWlLk6GJQsqaUBKTNV-1" source="bQDX-uMfjQgSmkw6_x5k-89" target="bQDX-uMfjQgSmkw6_x5k-75" edge="1">
          <mxGeometry width="50" height="50" relative="1" as="geometry">
            <mxPoint x="90" y="340" as="sourcePoint" />
            <mxPoint x="-110" y="430" as="targetPoint" />
            <Array as="points">
              <mxPoint x="-110" y="420" />
            </Array>
          </mxGeometry>
        </mxCell>
        <mxCell id="bQDX-uMfjQgSmkw6_x5k-92" value="Yes" style="text;html=1;align=center;verticalAlign=middle;resizable=0;points=[];autosize=1;strokeColor=none;fillColor=none;" parent="WIyWlLk6GJQsqaUBKTNV-1" vertex="1">
          <mxGeometry x="-110" y="325" width="40" height="30" as="geometry" />
        </mxCell>
        <mxCell id="bQDX-uMfjQgSmkw6_x5k-93" value="" style="endArrow=classic;html=1;rounded=0;exitX=0.5;exitY=1;exitDx=0;exitDy=0;entryX=0.5;entryY=0;entryDx=0;entryDy=0;" parent="WIyWlLk6GJQsqaUBKTNV-1" source="bQDX-uMfjQgSmkw6_x5k-84" target="WIyWlLk6GJQsqaUBKTNV-6" edge="1">
          <mxGeometry width="50" height="50" relative="1" as="geometry">
            <mxPoint x="440" y="700" as="sourcePoint" />
            <mxPoint x="490" y="650" as="targetPoint" />
          </mxGeometry>
        </mxCell>
        <mxCell id="bQDX-uMfjQgSmkw6_x5k-95" value="" style="endArrow=classic;html=1;rounded=0;exitX=1;exitY=0.5;exitDx=0;exitDy=0;entryX=0;entryY=0.5;entryDx=0;entryDy=0;" parent="WIyWlLk6GJQsqaUBKTNV-1" source="bQDX-uMfjQgSmkw6_x5k-5" target="bQDX-uMfjQgSmkw6_x5k-11" edge="1">
          <mxGeometry width="50" height="50" relative="1" as="geometry">
            <mxPoint x="1130" y="720" as="sourcePoint" />
            <mxPoint x="727" y="445" as="targetPoint" />
          </mxGeometry>
        </mxCell>
        <mxCell id="bQDX-uMfjQgSmkw6_x5k-100" value="" style="endArrow=classic;html=1;rounded=0;fontSize=11;exitX=0;exitY=0.5;exitDx=0;exitDy=0;entryX=1;entryY=0.5;entryDx=0;entryDy=0;" parent="WIyWlLk6GJQsqaUBKTNV-1" source="bQDX-uMfjQgSmkw6_x5k-89" target="bQDX-uMfjQgSmkw6_x5k-101" edge="1">
          <mxGeometry width="50" height="50" relative="1" as="geometry">
            <mxPoint x="-210" y="230" as="sourcePoint" />
            <mxPoint x="-260" y="250" as="targetPoint" />
          </mxGeometry>
        </mxCell>
        <mxCell id="bQDX-uMfjQgSmkw6_x5k-101" value="结束" style="rounded=1;whiteSpace=wrap;html=1;" parent="WIyWlLk6GJQsqaUBKTNV-1" vertex="1">
          <mxGeometry x="-380" y="220" width="120" height="60" as="geometry" />
        </mxCell>
        <mxCell id="bQDX-uMfjQgSmkw6_x5k-102" value="No" style="text;html=1;align=center;verticalAlign=middle;resizable=0;points=[];autosize=1;strokeColor=none;fillColor=none;fontSize=11;" parent="WIyWlLk6GJQsqaUBKTNV-1" vertex="1">
          <mxGeometry x="-230" y="215" width="40" height="30" as="geometry" />
        </mxCell>
        <mxCell id="bQDX-uMfjQgSmkw6_x5k-103" value="易加油提醒你，xx号枪支付xx元，优惠xx元" style="rounded=1;whiteSpace=wrap;html=1;fontSize=11;" parent="WIyWlLk6GJQsqaUBKTNV-1" vertex="1">
          <mxGeometry x="640" y="340" width="120" height="60" as="geometry" />
        </mxCell>
        <mxCell id="dKve_HhihdxJhTnQ7sWN-2" value="" style="endArrow=classic;html=1;rounded=0;fontFamily=Garamond;exitX=0.5;exitY=1;exitDx=0;exitDy=0;" parent="WIyWlLk6GJQsqaUBKTNV-1" source="dKve_HhihdxJhTnQ7sWN-12" target="dKve_HhihdxJhTnQ7sWN-4" edge="1">
          <mxGeometry width="50" height="50" relative="1" as="geometry">
            <mxPoint x="1000.0000000000005" y="895" as="sourcePoint" />
            <mxPoint x="1000" y="990" as="targetPoint" />
          </mxGeometry>
        </mxCell>
        <mxCell id="dKve_HhihdxJhTnQ7sWN-3" value="Yes&lt;br&gt;" style="text;html=1;align=center;verticalAlign=middle;resizable=0;points=[];autosize=1;strokeColor=none;fillColor=none;fontFamily=Garamond;" parent="WIyWlLk6GJQsqaUBKTNV-1" vertex="1">
          <mxGeometry x="990" y="895" width="40" height="30" as="geometry" />
        </mxCell>
        <mxCell id="dKve_HhihdxJhTnQ7sWN-4" value="将接收内容&amp;nbsp; 油枪 总金额&amp;nbsp; 支付金额 拆分出来&lt;br&gt;生成两条语音模板:&lt;br&gt;1.易加油提醒你,xx号枪支付xx元&lt;br&gt;2.易加油提醒你,xx号枪支付xx元,优惠xx元" style="rounded=1;whiteSpace=wrap;html=1;fontFamily=Garamond;" parent="WIyWlLk6GJQsqaUBKTNV-1" vertex="1">
          <mxGeometry x="860" y="960" width="280" height="60" as="geometry" />
        </mxCell>
        <mxCell id="dKve_HhihdxJhTnQ7sWN-5" value="" style="endArrow=classic;html=1;rounded=0;fontFamily=Garamond;exitX=1;exitY=0.5;exitDx=0;exitDy=0;entryX=0;entryY=0.5;entryDx=0;entryDy=0;" parent="WIyWlLk6GJQsqaUBKTNV-1" source="dKve_HhihdxJhTnQ7sWN-12" target="dKve_HhihdxJhTnQ7sWN-7" edge="1">
          <mxGeometry width="50" height="50" relative="1" as="geometry">
            <mxPoint x="1161.5" y="827.5" as="sourcePoint" />
            <mxPoint x="1280" y="828" as="targetPoint" />
          </mxGeometry>
        </mxCell>
        <mxCell id="dKve_HhihdxJhTnQ7sWN-6" value="No" style="text;html=1;align=center;verticalAlign=middle;resizable=0;points=[];autosize=1;strokeColor=none;fillColor=none;fontFamily=Garamond;" parent="WIyWlLk6GJQsqaUBKTNV-1" vertex="1">
          <mxGeometry x="1070" y="810" width="40" height="30" as="geometry" />
        </mxCell>
        <mxCell id="dKve_HhihdxJhTnQ7sWN-7" value="将接收内容&amp;nbsp; 油枪 支付金额 拆分出来&lt;br&gt;生成一条语音模板:&lt;br&gt;1.易加油提醒你,xx号枪支付xx元" style="rounded=1;whiteSpace=wrap;html=1;fontFamily=Garamond;" parent="WIyWlLk6GJQsqaUBKTNV-1" vertex="1">
          <mxGeometry x="1220" y="780" width="280" height="60" as="geometry" />
        </mxCell>
        <mxCell id="dKve_HhihdxJhTnQ7sWN-11" value="Yes" style="text;html=1;align=center;verticalAlign=middle;resizable=0;points=[];autosize=1;strokeColor=none;fillColor=none;fontFamily=Garamond;" parent="WIyWlLk6GJQsqaUBKTNV-1" vertex="1">
          <mxGeometry x="990" y="665" width="40" height="30" as="geometry" />
        </mxCell>
        <mxCell id="dKve_HhihdxJhTnQ7sWN-12" value="判断语音模板内容是否为" style="rhombus;whiteSpace=wrap;html=1;fontFamily=Garamond;" parent="WIyWlLk6GJQsqaUBKTNV-1" vertex="1">
          <mxGeometry x="960" y="770" width="80" height="80" as="geometry" />
        </mxCell>
        <mxCell id="dKve_HhihdxJhTnQ7sWN-14" value="" style="endArrow=classic;html=1;rounded=0;fontFamily=Garamond;exitX=0.5;exitY=1;exitDx=0;exitDy=0;entryX=0.5;entryY=0;entryDx=0;entryDy=0;" parent="WIyWlLk6GJQsqaUBKTNV-1" source="dKve_HhihdxJhTnQ7sWN-4" target="dKve_HhihdxJhTnQ7sWN-15" edge="1">
          <mxGeometry width="50" height="50" relative="1" as="geometry">
            <mxPoint x="1020" y="1110" as="sourcePoint" />
            <mxPoint x="1000" y="1120" as="targetPoint" />
          </mxGeometry>
        </mxCell>
        <mxCell id="dKve_HhihdxJhTnQ7sWN-15" value="判断是否&lt;br&gt;为柜台联" style="rhombus;whiteSpace=wrap;html=1;fontFamily=Garamond;" parent="WIyWlLk6GJQsqaUBKTNV-1" vertex="1">
          <mxGeometry x="960" y="1175" width="80" height="80" as="geometry" />
        </mxCell>
        <mxCell id="dKve_HhihdxJhTnQ7sWN-16" value="" style="endArrow=classic;html=1;rounded=0;fontFamily=Garamond;exitX=1;exitY=0.5;exitDx=0;exitDy=0;entryX=0;entryY=0.5;entryDx=0;entryDy=0;" parent="WIyWlLk6GJQsqaUBKTNV-1" source="dKve_HhihdxJhTnQ7sWN-15" target="dKve_HhihdxJhTnQ7sWN-23" edge="1">
          <mxGeometry width="50" height="50" relative="1" as="geometry">
            <mxPoint x="1160" y="1190" as="sourcePoint" />
            <mxPoint x="1120" y="1170" as="targetPoint" />
          </mxGeometry>
        </mxCell>
        <mxCell id="dKve_HhihdxJhTnQ7sWN-17" value="" style="endArrow=classic;html=1;rounded=0;fontFamily=Garamond;exitX=0.5;exitY=1;exitDx=0;exitDy=0;" parent="WIyWlLk6GJQsqaUBKTNV-1" source="dKve_HhihdxJhTnQ7sWN-15" target="dKve_HhihdxJhTnQ7sWN-24" edge="1">
          <mxGeometry width="50" height="50" relative="1" as="geometry">
            <mxPoint x="960" y="1280" as="sourcePoint" />
            <mxPoint x="1000" y="1290" as="targetPoint" />
          </mxGeometry>
        </mxCell>
        <mxCell id="dKve_HhihdxJhTnQ7sWN-18" value="Yes" style="text;html=1;align=center;verticalAlign=middle;resizable=0;points=[];autosize=1;strokeColor=none;fillColor=none;fontFamily=Garamond;" parent="WIyWlLk6GJQsqaUBKTNV-1" vertex="1">
          <mxGeometry x="1060" y="1190" width="40" height="30" as="geometry" />
        </mxCell>
        <mxCell id="dKve_HhihdxJhTnQ7sWN-19" value="No" style="text;html=1;align=center;verticalAlign=middle;resizable=0;points=[];autosize=1;strokeColor=none;fillColor=none;fontFamily=Garamond;" parent="WIyWlLk6GJQsqaUBKTNV-1" vertex="1">
          <mxGeometry x="990" y="1300" width="40" height="30" as="geometry" />
        </mxCell>
        <mxCell id="dKve_HhihdxJhTnQ7sWN-23" value="播报语音&lt;br&gt;1.易加油提醒你,xx号枪支付xx元" style="rounded=0;whiteSpace=wrap;html=1;fontFamily=Garamond;" parent="WIyWlLk6GJQsqaUBKTNV-1" vertex="1">
          <mxGeometry x="1143" y="1190" width="200" height="50" as="geometry" />
        </mxCell>
        <mxCell id="dKve_HhihdxJhTnQ7sWN-24" value="播报语音&lt;br&gt;2.易加油提醒你,xx号枪支付xx元,优惠xx元" style="rounded=0;whiteSpace=wrap;html=1;fontFamily=Garamond;" parent="WIyWlLk6GJQsqaUBKTNV-1" vertex="1">
          <mxGeometry x="880" y="1390" width="240" height="60" as="geometry" />
        </mxCell>
        <mxCell id="dKve_HhihdxJhTnQ7sWN-25" value="" style="endArrow=classic;html=1;rounded=0;fontFamily=Garamond;exitX=0.5;exitY=1;exitDx=0;exitDy=0;entryX=0.5;entryY=0;entryDx=0;entryDy=0;" parent="WIyWlLk6GJQsqaUBKTNV-1" source="dKve_HhihdxJhTnQ7sWN-7" target="dKve_HhihdxJhTnQ7sWN-32" edge="1">
          <mxGeometry width="50" height="50" relative="1" as="geometry">
            <mxPoint x="1490" y="930" as="sourcePoint" />
            <mxPoint x="1360" y="880" as="targetPoint" />
          </mxGeometry>
        </mxCell>
        <mxCell id="dKve_HhihdxJhTnQ7sWN-26" value="直播播报语音&lt;br&gt;1.易加油提醒你,xx号枪支付xx元" style="rounded=0;whiteSpace=wrap;html=1;fontFamily=Garamond;" parent="WIyWlLk6GJQsqaUBKTNV-1" vertex="1">
          <mxGeometry x="1245" y="1055" width="270" height="70" as="geometry" />
        </mxCell>
        <mxCell id="dKve_HhihdxJhTnQ7sWN-27" value="&lt;span style=&quot;&quot;&gt;易加油提醒你,xx号枪支付xx元,优惠xx元&lt;/span&gt;" style="text;html=1;align=center;verticalAlign=middle;resizable=0;points=[];autosize=1;strokeColor=none;fillColor=none;fontFamily=Garamond;" parent="WIyWlLk6GJQsqaUBKTNV-1" vertex="1">
          <mxGeometry x="890" y="850" width="230" height="30" as="geometry" />
        </mxCell>
        <mxCell id="dKve_HhihdxJhTnQ7sWN-32" value="判断是否&lt;br&gt;为柜台联" style="rhombus;whiteSpace=wrap;html=1;fontFamily=Garamond;" parent="WIyWlLk6GJQsqaUBKTNV-1" vertex="1">
          <mxGeometry x="1320" y="895" width="80" height="80" as="geometry" />
        </mxCell>
        <mxCell id="dKve_HhihdxJhTnQ7sWN-33" value="No" style="text;html=1;align=center;verticalAlign=middle;resizable=0;points=[];autosize=1;strokeColor=none;fillColor=none;fontFamily=Garamond;" parent="WIyWlLk6GJQsqaUBKTNV-1" vertex="1">
          <mxGeometry x="1360" y="990" width="40" height="30" as="geometry" />
        </mxCell>
        <mxCell id="dKve_HhihdxJhTnQ7sWN-34" value="" style="endArrow=classic;html=1;rounded=0;fontFamily=Garamond;exitX=0.5;exitY=1;exitDx=0;exitDy=0;" parent="WIyWlLk6GJQsqaUBKTNV-1" source="dKve_HhihdxJhTnQ7sWN-32" edge="1">
          <mxGeometry width="50" height="50" relative="1" as="geometry">
            <mxPoint x="1340" y="1030" as="sourcePoint" />
            <mxPoint x="1360" y="1050" as="targetPoint" />
          </mxGeometry>
        </mxCell>
        <mxCell id="dKve_HhihdxJhTnQ7sWN-35" value="" style="endArrow=classic;html=1;rounded=0;fontFamily=Garamond;exitX=1;exitY=0.5;exitDx=0;exitDy=0;" parent="WIyWlLk6GJQsqaUBKTNV-1" source="dKve_HhihdxJhTnQ7sWN-32" edge="1">
          <mxGeometry width="50" height="50" relative="1" as="geometry">
            <mxPoint x="1130" y="1140" as="sourcePoint" />
            <mxPoint x="1510" y="935" as="targetPoint" />
          </mxGeometry>
        </mxCell>
        <mxCell id="dKve_HhihdxJhTnQ7sWN-36" value="直播播报语音&lt;br&gt;1.易加油提醒你,xx号枪支付xx元" style="rounded=0;whiteSpace=wrap;html=1;fontFamily=Garamond;" parent="WIyWlLk6GJQsqaUBKTNV-1" vertex="1">
          <mxGeometry x="1515" y="905" width="270" height="70" as="geometry" />
        </mxCell>
        <mxCell id="dKve_HhihdxJhTnQ7sWN-37" value="Yes" style="text;html=1;align=center;verticalAlign=middle;resizable=0;points=[];autosize=1;strokeColor=none;fillColor=none;fontFamily=Garamond;" parent="WIyWlLk6GJQsqaUBKTNV-1" vertex="1">
          <mxGeometry x="1430" y="905" width="40" height="30" as="geometry" />
        </mxCell>
        <mxCell id="o1gkjpAd-OlSWwI9-tYf-0" value="点击一键修复&lt;br&gt;重新获取语音模板" style="ellipse;whiteSpace=wrap;html=1;" vertex="1" parent="WIyWlLk6GJQsqaUBKTNV-1">
          <mxGeometry x="640" y="110" width="120" height="80" as="geometry" />
        </mxCell>
      </root>
    </mxGraphModel>
  </diagram>
</mxfile>
